<svg xmlns="http://www.w3.org/2000/svg" xmlns:xlink="http://www.w3.org/1999/xlink" width="1080" zoomAndPan="magnify" viewBox="0 0 810 809.999993" height="1080" preserveAspectRatio="xMidYMid meet" version="1.0"><defs><clipPath id="1756ba2718"><path d="M 0 510.300781 L 810 510.300781 L 810 810 L 0 810 Z M 0 510.300781 " clip-rule="nonzero"/></clipPath><clipPath id="1469391c82"><path d="M 0 0 L 810 0 L 810 299.695312 L 0 299.695312 Z M 0 0 " clip-rule="nonzero"/></clipPath></defs><rect x="-81" width="972" fill="#ffffff" y="-80.999999" height="971.999992" fill-opacity="1"/><rect x="-81" width="972" fill="#ffffff" y="-80.999999" height="971.999992" fill-opacity="1"/><rect x="-81" width="972" fill="#c260e6" y="-80.999999" height="971.999992" fill-opacity="1"/><path fill="#033b31" d="M 395.945312 652.410156 C 399.277344 662.167969 397.210938 673.53125 390.773438 681.566406 C 385.140625 688.570312 376.289062 692.816406 367.324219 692.703125 C 358.359375 692.703125 349.507812 688.339844 344.105469 681.109375 C 335.023438 669.167969 335.941406 650.34375 346.746094 639.78125 C 356.171875 630.484375 370.542969 629.105469 381.921875 635.648438 C 388.359375 639.4375 393.53125 645.292969 395.945312 652.410156 Z M 544.804688 229.84375 C 540.4375 173.25 502.386719 130.199219 445.144531 123.3125 C 393.417969 117 342.839844 141.21875 310.425781 181.054688 C 276.054688 223.183594 260.765625 280.925781 278.238281 333.273438 C 280.765625 340.964844 292.148438 337.867188 290.421875 329.945312 C 270.882812 241.09375 344.792969 130.542969 444.222656 152.46875 C 493.652344 163.375 512.847656 212.050781 503.421875 258.3125 C 492.847656 310.199219 453.417969 349.347656 419.855469 387.917969 C 378.816406 434.984375 340.65625 488.9375 341.117188 553.914062 C 341.34375 588.925781 397.441406 588.582031 395.257812 553.914062 C 391.234375 488.019531 440.085938 437.738281 478.476562 389.871094 C 515.375 344.066406 549.515625 291.257812 544.804688 229.84375 Z M 544.804688 229.84375 " fill-opacity="1" fill-rule="nonzero"/><g clip-path="url(#1756ba2718)"><path fill="#a45c40" d="M 0.0625 530.316406 L 0.0625 550.269531 L 9.367188 558.882812 C 27.402344 575.605469 41.957031 587.894531 59.167969 600.882812 C 115.425781 643.324219 178.011719 678.226562 252.492188 708.632812 C 299.320312 727.761719 364.246094 746.703125 418.796875 757.027344 C 443.664062 761.78125 497.199219 770.269531 529.347656 774.511719 C 539.09375 775.84375 547.320312 777.109375 547.574219 777.363281 C 547.824219 777.617188 538.902344 777.996094 527.640625 778.25 C 516.375 778.503906 499.921875 778.945312 491.0625 779.261719 C 461.195312 780.402344 459.421875 780.277344 438.476562 776.792969 C 392.914062 769.128906 331.972656 755.570312 285.777344 742.777344 C 248.316406 732.386719 192.691406 712.875 157.0625 697.609375 C 131.433594 686.652344 91.695312 667.203125 71.824219 655.992188 C 51.382812 644.464844 24.804688 627.804688 8.035156 616.019531 C 3.921875 613.109375 0.441406 610.765625 0.253906 610.765625 C 0.125 610.765625 0 617.859375 0 626.601562 L 0 642.375 L 3.605469 644.84375 C 5.632812 646.175781 12.53125 650.609375 18.984375 654.597656 C 80.808594 693.113281 149.46875 724.089844 230.976562 750.3125 C 256.984375 758.738281 271.285156 762.792969 305.648438 771.660156 C 319.507812 775.207031 318.621094 775.273438 296.789062 772.230469 C 248.378906 765.515625 195.664062 753.101562 143.839844 736.125 C 112.199219 725.734375 48.21875 702.296875 15.628906 689.058594 C 7.339844 685.703125 0.441406 682.976562 0.253906 682.976562 C 0.125 682.976562 0 711.609375 0 746.640625 L 0 810.300781 L 810 810.300781 L 810 801.117188 C 810 792.121094 810 791.933594 808.609375 791.617188 C 803.734375 790.539062 780.132812 786.992188 763.804688 784.964844 C 758.046875 784.265625 749.25 782.683594 744.1875 781.480469 C 717.355469 775.207031 699.765625 772.929688 650.847656 769.445312 C 638.699219 768.558594 623.890625 767.417969 617.941406 766.910156 C 554.40625 761.273438 455.6875 746.511719 405.316406 735.109375 C 376.144531 728.523438 337.730469 717.058594 303.433594 704.707031 C 236.230469 680.507812 162.570312 642.691406 108.210938 604.492188 C 72.519531 579.472656 39.675781 551.535156 11.328125 522.078125 L 0 510.359375 Z M 0.0625 530.316406 " fill-opacity="1" fill-rule="nonzero"/></g><g clip-path="url(#1469391c82)"><path fill="#a45c40" d="M 809.9375 279.679688 L 809.9375 259.726562 L 800.632812 251.113281 C 782.597656 234.386719 768.042969 222.097656 750.832031 209.113281 C 694.574219 166.671875 631.988281 131.769531 557.507812 101.363281 C 510.679688 82.230469 445.753906 63.292969 391.203125 52.964844 C 366.335938 48.214844 312.800781 39.726562 280.652344 35.484375 C 270.90625 34.152344 262.679688 32.886719 262.425781 32.632812 C 262.175781 32.378906 271.097656 32 282.359375 31.746094 C 293.625 31.492188 310.078125 31.050781 318.9375 30.730469 C 348.804688 29.59375 350.578125 29.71875 371.523438 33.203125 C 417.085938 40.867188 478.027344 54.421875 524.222656 67.21875 C 561.683594 77.609375 617.308594 97.117188 652.9375 112.382812 C 678.566406 123.34375 718.304688 142.789062 738.175781 154.003906 C 758.617188 165.53125 785.195312 182.191406 801.964844 193.972656 C 806.078125 196.886719 809.558594 199.230469 809.746094 199.230469 C 809.875 199.230469 810 192.136719 810 183.394531 L 810 167.621094 L 806.394531 165.152344 C 804.367188 163.820312 797.46875 159.386719 791.015625 155.394531 C 729.191406 116.882812 660.53125 85.90625 579.023438 59.679688 C 553.015625 51.257812 538.714844 47.203125 504.351562 38.332031 C 490.492188 34.785156 491.378906 34.722656 513.210938 37.761719 C 561.621094 44.476562 614.335938 56.894531 666.160156 73.871094 C 697.800781 84.257812 761.78125 107.695312 794.371094 120.9375 C 802.660156 124.292969 809.558594 127.015625 809.746094 127.015625 C 809.875 127.015625 810 98.386719 810 63.355469 L 810 -0.308594 L 0 -0.308594 L 0 8.878906 C 0 17.875 0 18.0625 1.390625 18.378906 C 6.265625 19.457031 29.867188 23.003906 46.195312 25.03125 C 51.953125 25.726562 60.75 27.3125 65.8125 28.515625 C 92.644531 34.785156 110.234375 37.066406 159.152344 40.550781 C 171.300781 41.4375 186.109375 42.578125 192.058594 43.085938 C 255.59375 48.722656 354.3125 63.480469 404.683594 74.882812 C 433.855469 81.472656 472.269531 92.9375 506.566406 105.289062 C 573.769531 129.488281 647.429688 167.304688 701.789062 205.503906 C 737.480469 230.523438 770.324219 258.460938 798.671875 287.914062 L 810 299.632812 Z M 809.9375 279.679688 " fill-opacity="1" fill-rule="nonzero"/></g></svg>